<?xml version="1.0" encoding="UTF-8"?>
<svg id="Layer_2" data-name="Layer 2" xmlns="http://www.w3.org/2000/svg" xmlns:xlink="http://www.w3.org/1999/xlink" viewBox="0 0 1370.85 787.47">
  <defs>
    <style>
      .cls-1 {
        fill: url(#radial-gradient);
      }
    </style>
    <radialGradient id="radial-gradient" cx="673.18" cy="-277.59" fx="673.18" fy="-277.59" r="884.49" gradientTransform="translate(-.04 -202.63) scale(1.01 1.32)" gradientUnits="userSpaceOnUse">
      <stop offset="0" stop-color="#1e1e24"/>
      <stop offset=".25" stop-color="#121216"/>
      <stop offset=".57" stop-color="#0a0b0c"/>
      <stop offset="1" stop-color="#08090a"/>
    </radialGradient>
  </defs>
  <g id="Layer_1-2" data-name="Layer 1">
    <path class="cls-1" d="m1369.65,787.47c0-8.84,0-17.67,0-26.51-.06-252.91.18-505.88,1.21-758.8-112.57,1.42-225.16,1.72-337.73,1.72-154.03,0-308.06-.8-462.08-3.77-2-.03-4-.08-6-.11-142.2,2.62-284.43,3.1-426.64,3.1-46.14,0-92.27-.09-138.41-.27.42,183.63.47,367.26.51,550.88.02,77.92,0,155.84-.04,233.77h1369.18Z"/>
  </g>
</svg>