<?xml version="1.0" encoding="utf-8"?>
<!-- Generator: Adobe Illustrator 27.2.0, SVG Export Plug-In . SVG Version: 6.00 Build 0)  -->
<svg version="1.1" id="Layer_1" xmlns="http://www.w3.org/2000/svg" xmlns:xlink="http://www.w3.org/1999/xlink" x="0px" y="0px"
	 viewBox="0 0 22 21" style="enable-background:new 0 0 22 21;" xml:space="preserve">
<style type="text/css">
	.st0{fill:#CCCCCC;}
	.st1{fill:#E6E6E6;}
	.st2{fill:#FFFFFF;}
</style>
<circle class="st0" cx="8.9" cy="1.7" r="0.9"/>
<circle class="st0" cx="1.9" cy="8.7" r="0.9"/>
<circle class="st0" cx="1.9" cy="12.8" r="0.9"/>
<circle class="st0" cx="8.9" cy="19.8" r="0.9"/>
<circle class="st0" cx="13.1" cy="19.8" r="0.9"/>
<circle class="st0" cx="20.1" cy="12.8" r="0.9"/>
<circle class="st0" cx="20" cy="8.6" r="0.9"/>
<circle class="st0" cx="13.1" cy="1.7" r="0.9"/>
<circle class="st0" cx="5" cy="4.8" r="1.3"/>
<circle class="st1" cx="5" cy="8.7" r="1.3"/>
<circle class="st0" cx="17" cy="4.8" r="1.3"/>
<circle class="st1" cx="17" cy="8.6" r="1.3"/>
<circle class="st1" cx="17" cy="12.8" r="1.3"/>
<circle class="st0" cx="17" cy="16.8" r="1.3"/>
<circle class="st1" cx="13.1" cy="16.8" r="1.3"/>
<circle class="st1" cx="8.9" cy="16.8" r="1.3"/>
<circle class="st1" cx="5" cy="12.8" r="1.3"/>
<circle class="st0" cx="5" cy="16.8" r="1.3"/>
<circle class="st1" cx="8.9" cy="4.8" r="1.3"/>
<circle class="st1" cx="13.1" cy="4.7" r="1.3"/>
<circle class="st2" cx="8.9" cy="8.8" r="1.5"/>
<circle class="st2" cx="8.9" cy="12.9" r="1.5"/>
<circle class="st2" cx="13.1" cy="8.8" r="1.5"/>
<circle class="st2" cx="13.1" cy="12.9" r="1.5"/>
</svg>
