<?xml version="1.0" encoding="utf-8"?>
<!-- Generator: Adobe Illustrator 27.2.0, SVG Export Plug-In . SVG Version: 6.00 Build 0)  -->
<svg version="1.1" id="Layer_1" xmlns="http://www.w3.org/2000/svg" xmlns:xlink="http://www.w3.org/1999/xlink" x="0px" y="0px"
	 viewBox="0 0 20 19.9" style="enable-background:new 0 0 20 19.9;" xml:space="preserve">
<style type="text/css">
	.st0{fill:#CCCCCC;}
	.st1{fill:#E6E6E6;}
	.st2{fill:#FFFFFF;}
</style>
<circle class="st0" cx="7.9" cy="0.9" r="0.9"/>
<circle class="st0" cx="0.9" cy="7.9" r="0.9"/>
<circle class="st0" cx="0.9" cy="12" r="0.9"/>
<circle class="st0" cx="7.9" cy="19" r="0.9"/>
<circle class="st0" cx="12.1" cy="19" r="0.9"/>
<circle class="st0" cx="19.1" cy="12" r="0.9"/>
<circle class="st0" cx="19" cy="7.8" r="0.9"/>
<circle class="st0" cx="12.1" cy="0.9" r="0.9"/>
<circle class="st0" cx="4" cy="4" r="1.3"/>
<circle class="st1" cx="4" cy="7.9" r="1.3"/>
<circle class="st0" cx="16" cy="4" r="1.3"/>
<circle class="st1" cx="16" cy="7.8" r="1.3"/>
<circle class="st1" cx="16" cy="12" r="1.3"/>
<circle class="st0" cx="16" cy="16" r="1.3"/>
<circle class="st1" cx="12.1" cy="16" r="1.3"/>
<circle class="st1" cx="7.9" cy="16" r="1.3"/>
<circle class="st1" cx="4" cy="12" r="1.3"/>
<circle class="st0" cx="4" cy="16" r="1.3"/>
<circle class="st1" cx="7.9" cy="4" r="1.3"/>
<circle class="st1" cx="12.1" cy="3.9" r="1.3"/>
<circle class="st2" cx="7.9" cy="8" r="1.5"/>
<circle class="st2" cx="7.9" cy="12.1" r="1.5"/>
<circle class="st2" cx="12.1" cy="8" r="1.5"/>
<circle class="st2" cx="12.1" cy="12.1" r="1.5"/>
</svg>
